<svg xmlns="http://www.w3.org/2000/svg" viewBox="0 0 128 128">
  <path fill="#F38020" d="M99.18 58.66c-.34-.9-1.26-1.5-2.24-1.5l-36.77.02c-.2 0-.38-.1-.46-.28-.08-.16-.06-.34.04-.48a55.95 55.95 0 0 1 1.64-2.24c1.14-1.46.62-3.58-1.04-4.4L49.4 43.66c-.54-.26-1.16-.3-1.72-.12-.56.18-1.02.56-1.28 1.08L27.28 81.04c-.4.82-.32 1.78.22 2.52.54.74 1.44 1.14 2.36 1.06l33.28-.02c.2 0 .38.1.46.28.08.16.06.34-.04.48l-1.64 2.24c-1.14 1.46-.62 3.58 1.04 4.4l10.96 6.12c.54.26 1.16.3 1.72.12.56-.18 1.02-.56 1.28-1.08l23.26-36.42c.4-.82.32-1.78-.22-2.52-.14-.18-.3-.34-.48-.48l3.7-.08Z"/>
  <path fill="#FAAE40" d="M103.84 58.66c-.34-.9-1.26-1.5-2.24-1.5l-9.5.02a1.13 1.13 0 0 1-.42 0l-31.7.02c-.2 0-.38-.1-.46-.28-.08-.16-.06-.34.04-.48a55.95 55.95 0 0 1 1.64-2.24c1.14-1.46.62-3.58-1.04-4.4L49.2 43.68c-.54-.26-1.16-.3-1.72-.12-.56.18-1.02.56-1.28 1.08l-4.82 9.12c-.08.14-.04.3.08.4.12.1.28.12.42.06l7.68-3.36c.24-.1.52-.06.72.1.2.18.28.44.22.7l-2.64 11.5c-.04.18.02.36.16.48.14.12.34.16.52.1l3.68-1.26c.22-.08.46-.02.62.14.16.16.22.4.14.62l-3.68 9.84c-.1.28.02.58.28.74.26.14.58.1.78-.12l1.84-1.88c.3-.32.78-.38 1.14-.14l7.98 5.26c.18.12.4.14.6.08.2-.08.36-.24.4-.44l3.06-11.9c.04-.18-.02-.36-.16-.48-.14-.12-.34-.16-.52-.1l-3.68 1.26c-.22.08-.46.02-.62-.14-.16-.16-.22-.4-.14-.62l5.04-13.46c.08-.22.28-.36.52-.36l35.56-.02c.68 0 1.26.48 1.38 1.14l.02.18c.04.24.02.48-.06.72l-.02.06Z"/>
</svg>