<svg width="1600" height="900" viewBox="0 0 1600 900" fill="none" xmlns="http://www.w3.org/2000/svg" role="img" aria-labelledby="title desc">
  <title id="title">Confidential secure project cover</title>
  <desc id="desc">A secure cover graphic for confidential project screenshots with a lock icon and redacted content blocks.</desc>
  <defs>
    <linearGradient id="bg" x1="140" y1="72" x2="1488" y2="852" gradientUnits="userSpaceOnUse">
      <stop stop-color="#07111F"/>
      <stop offset="0.55" stop-color="#102038"/>
      <stop offset="1" stop-color="#071624"/>
    </linearGradient>
    <linearGradient id="panel" x1="300" y1="170" x2="1316" y2="740" gradientUnits="userSpaceOnUse">
      <stop stop-color="rgba(255,255,255,0.16)"/>
      <stop offset="1" stop-color="rgba(255,255,255,0.06)"/>
    </linearGradient>
    <linearGradient id="accent" x1="420" y1="300" x2="1180" y2="620" gradientUnits="userSpaceOnUse">
      <stop stop-color="#4FD1C5"/>
      <stop offset="1" stop-color="#60A5FA"/>
    </linearGradient>
    <pattern id="grid" width="40" height="40" patternUnits="userSpaceOnUse">
      <path d="M40 0H0V40" stroke="rgba(255,255,255,0.06)" stroke-width="1"/>
    </pattern>
    <filter id="shadow" x="166" y="112" width="1268" height="676" filterUnits="userSpaceOnUse" color-interpolation-filters="sRGB">
      <feFlood flood-opacity="0" result="BackgroundImageFix"/>
      <feColorMatrix in="SourceAlpha" type="matrix" values="0 0 0 0 0 0 0 0 0 0 0 0 0 0 0 0 0 0 127 0" result="hardAlpha"/>
      <feOffset dy="14"/>
      <feGaussianBlur stdDeviation="24"/>
      <feComposite in2="hardAlpha" operator="out"/>
      <feColorMatrix type="matrix" values="0 0 0 0 0.0117647 0 0 0 0 0.0627451 0 0 0 0 0.121569 0 0 0 0.34 0"/>
      <feBlend mode="normal" in2="BackgroundImageFix" result="effect1_dropShadow_1_1"/>
      <feBlend mode="normal" in="SourceGraphic" in2="effect1_dropShadow_1_1" result="shape"/>
    </filter>
  </defs>

  <rect width="1600" height="900" fill="url(#bg)"/>
  <rect width="1600" height="900" fill="url(#grid)"/>
  <circle cx="1320" cy="160" r="230" fill="#0EA5E9" fill-opacity="0.08"/>
  <circle cx="240" cy="760" r="280" fill="#14B8A6" fill-opacity="0.08"/>

  <g filter="url(#shadow)">
    <rect x="214" y="160" width="1172" height="580" rx="36" fill="#08111E"/>
    <rect x="214.75" y="160.75" width="1170.5" height="578.5" rx="35.25" stroke="rgba(255,255,255,0.12)" stroke-width="1.5"/>
    <rect x="214" y="160" width="1172" height="580" rx="36" fill="url(#panel)"/>
  </g>

  <rect x="266" y="214" width="320" height="18" rx="9" fill="rgba(255,255,255,0.16)"/>
  <rect x="266" y="252" width="188" height="10" rx="5" fill="rgba(255,255,255,0.1)"/>
  <rect x="1118" y="214" width="164" height="42" rx="21" fill="rgba(79,209,197,0.12)"/>
  <rect x="1142" y="228" width="116" height="14" rx="7" fill="url(#accent)"/>

  <g opacity="0.9">
    <rect x="266" y="312" width="482" height="276" rx="28" fill="rgba(255,255,255,0.05)"/>
    <rect x="790" y="312" width="544" height="88" rx="24" fill="rgba(255,255,255,0.05)"/>
    <rect x="790" y="422" width="544" height="56" rx="18" fill="rgba(255,255,255,0.05)"/>
    <rect x="790" y="500" width="544" height="56" rx="18" fill="rgba(255,255,255,0.05)"/>
    <rect x="790" y="578" width="260" height="56" rx="18" fill="rgba(255,255,255,0.05)"/>
  </g>

  <g opacity="0.72">
    <rect x="314" y="358" width="386" height="20" rx="10" fill="rgba(255,255,255,0.18)"/>
    <rect x="314" y="406" width="290" height="20" rx="10" fill="rgba(255,255,255,0.14)"/>
    <rect x="314" y="454" width="338" height="20" rx="10" fill="rgba(255,255,255,0.14)"/>
    <rect x="314" y="502" width="234" height="20" rx="10" fill="rgba(255,255,255,0.14)"/>
  </g>

  <g transform="translate(534 315)">
    <circle cx="266" cy="134" r="108" fill="rgba(79,209,197,0.1)" stroke="rgba(96,165,250,0.24)" stroke-width="2"/>
    <path d="M800 389C800 354.206 828.206 326 863 326C897.794 326 926 354.206 926 389V420H905V389C905 365.804 886.196 347 863 347C839.804 347 821 365.804 821 389V420H800V389Z" transform="translate(-597 -244)" fill="url(#accent)"/>
    <rect x="201" y="176" width="130" height="122" rx="28" fill="url(#accent)"/>
    <path d="M266 210C286.987 210 304 227.013 304 248C304 260.698 297.773 271.943 288.215 278.839V311H243.785V278.839C234.227 271.943 228 260.698 228 248C228 227.013 245.013 210 266 210Z" fill="#07111F"/>
    <path d="M255 252C255 245.925 259.925 241 266 241C272.075 241 277 245.925 277 252V258C277 264.075 272.075 269 266 269C259.925 269 255 264.075 255 258V252Z" fill="white" fill-opacity="0.9"/>
  </g>

  <g opacity="0.18">
    <rect x="874" y="336" width="376" height="16" rx="8" fill="white"/>
    <rect x="874" y="446" width="408" height="12" rx="6" fill="white"/>
    <rect x="874" y="524" width="362" height="12" rx="6" fill="white"/>
    <rect x="874" y="602" width="152" height="12" rx="6" fill="white"/>
  </g>

  <text x="800" y="782" text-anchor="middle" fill="white" font-family="Arial, Helvetica, sans-serif" font-size="56" font-weight="700" letter-spacing="6">
    CONFIDENTIAL PROJECT
  </text>
  <text x="800" y="834" text-anchor="middle" fill="#9DB5C7" font-family="Arial, Helvetica, sans-serif" font-size="24" font-weight="500" letter-spacing="3">
    SECURE PROJECT COVER
  </text>
</svg>
